<svg id="Layer_1" data-name="Layer 1" xmlns="http://www.w3.org/2000/svg" viewBox="0 0 1920 382.28"><defs><style>.cls-1{fill:#f2f0e6;}</style></defs><path class="cls-1" d="M849.23,74.57A116.16,116.16,0,0,0,733.08,190.73V317.81h232.3V190.73A116.16,116.16,0,0,0,849.23,74.57Z"/><path class="cls-1" d="M1858.72,221.19H1680a57,57,0,0,0,1.1,5.89c6,19.93,19.92,31.82,39.49,37.3,17.34,4.85,34.31,3.53,50.47-4.86a44.06,44.06,0,0,0,16.22-13.88,6,6,0,0,1,5.46-2.91c20.28.08,40.56.05,60.84.08a24.21,24.21,0,0,1,2.88.42c-.64,2.24-1.09,4.3-1.82,6.26-12.54,33.74-36.13,56.33-70,68.06a141.93,141.93,0,0,1-84.91,2.9c-34.29-9.21-59.44-30.08-73.73-62.44-18.79-42.51-18-85.1,5.62-125.64C1651.69,97.94,1683,79.59,1722.46,75c24-2.82,47.16.23,69.07,10.44,31.39,14.63,51.27,39.38,61.82,72,6.27,19.39,7.45,39.32,6.21,59.5A35.26,35.26,0,0,1,1858.72,221.19Zm-66-50.46c-4.41-18.93-24.08-40.6-59.67-38.55-25.91,1.49-49.33,18.57-52,38.55Z"/><path class="cls-1" d="M455.08,326.1c-28.52-.7-54.91-7.56-78.17-24.26-27.48-19.73-43.15-46.95-48.24-80.06-4.53-29.5-1-58.05,13.48-84.6,17.74-32.57,45.46-52,81.42-59.84C450,71.6,476.44,72.56,502,81.71c43.62,15.59,69.76,46.8,78.57,91.9,6.43,32.89,1.94,64.6-15.55,93.69C547.18,297,520.43,314.74,486.78,322,476.4,324.2,465.66,324.77,455.08,326.1Zm-.37-63.43c36.41.17,63.46-26.46,63.71-62.72S491.32,136.1,455,136.11s-63.21,27.07-63.32,63.29C391.6,235.9,418.09,262.5,454.71,262.67Z"/><path class="cls-1" d="M1575.77,81.25v61.58c-2.32.18-4.61.5-6.9.5q-58.36,0-116.71,0c-2,0-4.07-.07-6.08.12-5.13.49-8.29,3.51-8.88,8.27s2,9.43,6.77,10.68c6.94,1.8,14,3.09,21,4.54,24.72,5.09,49.53,9.75,74.12,15.38,17.37,4,32.15,12.85,42.61,27.71,20.54,29.18,12.79,71.45-16.8,92.85-14.89,10.76-31.68,15.3-49.85,15.34q-34.3.08-68.59,0h-67.27c-1.48-4.34-1.78-55.45-.34-62.52h130.18a47.12,47.12,0,0,0,6.62-.28c5.7-.81,8.8-4.05,9.21-9.31a10.19,10.19,0,0,0-8.1-11c-7.69-1.89-15.46-3.45-23.2-5.12-23.59-5.09-47.26-9.79-70.73-15.36-21-5-38-16.11-48.2-35.69-13.47-25.77-6.44-59.33,16.32-78.84a74.43,74.43,0,0,1,47.49-18.5c23.22-.61,46.46-.34,69.69-.39,20.28-.05,40.56,0,60.84,0Z"/><path class="cls-1" d="M306.18,171.05H239.06c-.73-1.39-1.52-2.81-2.23-4.27-10-20.72-31.09-31.65-54-30.47-41.93,2.17-61.31,38.45-57.24,71.86,2.12,17.4,9.28,32.05,23.41,42.84,25.59,19.54,65.66,14.11,83.4-11.32,2.51-3.59,4.42-7.6,6.85-11.83h67.29c-1.51,5.94-2.5,11.52-4.33,16.8-14.74,42.56-44.36,68.73-88.39,77.78-29.8,6.12-59.18,3.71-86.88-9.75-35.51-17.26-56.13-46.27-63.88-84.4-6.11-30-3.44-59.47,10-87.31,16.61-34.46,44.24-55.43,81.41-63.63,27.07-6,54-4.69,80,5.37,38.12,14.76,61.31,42.67,70.82,82.17C305.71,166.66,305.82,168.5,306.18,171.05Z"/><path class="cls-1" d="M1141.2,318h-65L974.73,81.68h69.63c22.19,52.26,44.46,104.7,67.32,158.55,8-18.31,14.73-35.82,21.87-53.13,7.23-17.51,14.29-35.09,21.42-52.64s14.25-35.06,21.47-52.84h66.29Z"/><path class="cls-1" d="M619.56,81.58h63.81V317.81H619.56Z"/><path class="cls-1" d="M1270.28,81.63h64V317.84h-64Z"/></svg>